#!OML:ASF F:\VICON\USERDATA\INSTALL\rory3\rory3.ASF
:FULLY-SPECIFIED
:DEGREES
1517
root 1.34097 15.2574 -0.316907 6.07377 10.0501 -2.67003
lowerback 11.6477 0.689032 -5.26673
upperback -5.28205 -0.341064 -3.40666
thorax -12.3783 0.0927606 -0.696547
lowerneck -0.818884 -0.54988 -8.15325
upperneck 29.5088 -2.11799 9.05422
head 9.54601 -0.943242 4.463
rclavicle -5.0541e-014 3.02153e-014
rhumerus -85.2098 6.38264 -70.9109
rradius 128.668
rwrist -39.4834
rhand 40.9609 12.6413
rfingers 7.12502
rthumb 63.1868 2.70794
lclavicle -5.0541e-014 3.02153e-014
lhumerus -80.6222 -19.5191 68.6896
lradius 129.523
lwrist 75.3964
lhand 23.0008 42.2279
lfingers 7.12502
lthumb 47.3196 64.752
rfemur -20.505 -7.0353 14.6993
rtibia 42.6173
rfoot -21.3981 -9.93043
rtoes -20.6231
lfemur -27.6812 -0.331597 -18.4326
ltibia 47.3857
lfoot -18.5121 -8.34548
ltoes -0.0344048
1518
root 1.34198 15.2487 -0.32482 6.40917 10.0761 -2.54109
lowerback 12.0232 0.611221 -5.58156
upperback -5.81935 -0.561404 -3.3718
thorax -13.2271 0.0352141 -0.455768
lowerneck -1.6383 -0.610247 -8.03536
upperneck 30.368 -2.16571 8.90944
head 10.0244 -0.953425 4.42269
rclavicle 2.65812e-014 6.36111e-015
rhumerus -85.1099 6.50465 -71.0226
rradius 128.584
rwrist -39.7026
rhand 41.1266 12.5957
rfingers 7.12502
rthumb 63.3223 2.85176
lclavicle 2.65812e-014 6.36111e-015
lhumerus -80.6805 -18.7009 68.7609
lradius 129.394
lwrist 75.6946
lhand 24.0732 42.5867
lfingers 7.12502
lthumb 48.3089 64.6541
rfemur -21.085 -7.25267 14.586
rtibia 42.9702
rfoot -21.4481 -9.7705
rtoes -20.5604
lfemur -28.2505 -0.292822 -18.5871
ltibia 47.7107
lfoot -18.5494 -8.40239
ltoes -0.044875
1519
root 1.3432 15.2378 -0.335706 6.73945 10.127 -2.61517
lowerback 12.4519 0.538044 -5.67663
upperback -6.37739 -0.739335 -3.28143
thorax -14.144 -0.0131758 -0.284063
lowerneck -2.44988 -0.689316 -7.8798
upperneck 31.1827 -2.22669 8.70364
head 10.4953 -0.97263 4.35051
rclavicle -2.01021e-014 -1.11319e-014
rhumerus -84.9763 6.77086 -71.1667
rradius 128.457
rwrist -39.94
rhand 41.0002 12.6571
rfingers 7.12502
rthumb 63.2189 2.76847
lclavicle -2.01021e-014 -1.11319e-014
lhumerus -80.5836 -18.0541 68.8461
lradius 129.178
lwrist 76.1792
lhand 24.5852 42.633
lfingers 7.12502
lthumb 48.78 64.4735
rfemur -21.6907 -7.49199 14.7003
rtibia 43.305
rfoot -21.5388 -9.59051
rtoes -20.6855
lfemur -28.9045 -0.23542 -18.5193
ltibia 48.096
lfoot -18.5802 -8.49184
ltoes -0.0761506
1520
root 1.34548 15.224 -0.347636 7.02877 10.1958 -2.89062
lowerback 12.8157 0.513799 -5.49476
upperback -6.85094 -0.787877 -3.19444
thorax -14.9364 -0.0298131 -0.296718
lowerneck -3.28913 -0.854845 -7.69752
upperneck 31.8626 -2.41384 8.51519
head 10.9417 -1.04423 4.26212
rclavicle -2.25621e-014 6.36111e-014
rhumerus -84.7376 6.94687 -71.4056
rradius 128.273
rwrist -40.0931
rhand 41.2408 12.7608
rfingers 7.12502
rthumb 63.4154 3.14846
lclavicle -2.25621e-014 6.36111e-014
lhumerus -80.2818 -17.7498 69.1068
lradius 128.949
lwrist 76.6214
lhand 24.5778 42.2679
lfingers 7.12502
lthumb 48.7732 64.1117
rfemur -22.2811 -7.69272 15.0374
rtibia 43.6336
rfoot -21.5856 -9.49243
rtoes -20.9316
lfemur -29.5939 -0.162509 -18.2344
ltibia 48.5367
lfoot -18.6184 -8.62752
ltoes 0.0188323
1521
root 1.34668 15.2111 -0.361924 7.31495 10.2288 -3.0933
lowerback 13.1264 0.483608 -5.42701
upperback -7.26763 -0.862849 -3.15688
thorax -15.6369 -0.0534772 -0.291087
lowerneck -4.09739 -1.03466 -7.42487
upperneck 32.4646 -2.64093 8.33063
head 11.3616 -1.12368 4.14909
rclavicle 1.25731e-014 -1.27222e-014
rhumerus -84.4068 7.18574 -71.821
rradius 128.114
rwrist -40.1297
rhand 41.7524 12.8513
rfingers 7.12502
rthumb 63.831 3.8408
lclavicle 1.25731e-014 -1.27222e-014
lhumerus -79.9548 -17.5965 69.4142
lradius 128.773
lwrist 76.8139
lhand 24.6812 42.1914
lfingers 7.12502
lthumb 48.8683 63.9886
rfemur -22.8891 -7.87473 15.2962
rtibia 43.9677
rfoot -21.6002 -9.35604
rtoes -20.5962
lfemur -30.2882 -0.0300572 -18.0295
ltibia 49.0034
lfoot -18.6164 -8.79112
ltoes 0.169583
1522
root 1.3481 15.1973 -0.379478 7.6482 10.291 -3.22441
lowerback 13.5307 0.398697 -5.43783
upperback -7.74465 -1.04257 -3.13951
thorax -16.4791 -0.115204 -0.238317
lowerneck -4.87104 -1.17615 -7.14815
upperneck 33.0551 -2.82339 8.15092
head 11.7718 -1.18231 4.03851
rclavicle -5.26779e-015 2.8625e-014
rhumerus -84.1279 7.70718 -72.3998
rradius 128.001
rwrist -40.2376
rhand 42.5582 12.8684
rfingers 7.12502
rthumb 64.4789 4.84705
lclavicle -5.26779e-015 2.8625e-014
lhumerus -79.8472 -17.5037 69.8574
lradius 128.708
lwrist 76.5966
lhand 24.8216 42.3971
lfingers 7.12502
lthumb 48.9973 64.1308
rfemur -23.5623 -8.12222 15.4909
rtibia 44.3377
rfoot -21.5803 -9.29224
rtoes -20.8696
lfemur -31.0488 0.128339 -17.9169
ltibia 49.4659
lfoot -18.5961 -8.95981
ltoes 0.230208
